<mxfile host="app.diagrams.net" modified="2022-02-11T10:19:02.928Z" agent="5.0 (Macintosh; Intel Mac OS X 10_15_6) AppleWebKit/537.36 (KHTML, like Gecko) Chrome/78.0.3904.108 Safari/537.36" etag="cTwtn36enuleE0yavw6I" version="16.5.3" type="github">
  <diagram id="boqYSjhlPDfo5EqzpHAg" name="Page-1">
    <mxGraphModel dx="946" dy="548" grid="1" gridSize="10" guides="1" tooltips="1" connect="1" arrows="1" fold="1" page="1" pageScale="1" pageWidth="827" pageHeight="1169" math="0" shadow="0">
      <root>
        <mxCell id="0" />
        <mxCell id="1" parent="0" />
        <mxCell id="QJieqvBiZlkZ0J_g9zYV-2" value="&lt;h1&gt;打破双亲委派&lt;/h1&gt;&lt;p style=&quot;font-size: 17px&quot;&gt;&lt;b&gt;&lt;font style=&quot;font-size: 17px&quot;&gt;为什么打破双亲委派？&lt;/font&gt;&lt;/b&gt;&lt;/p&gt;&lt;p style=&quot;font-size: 17px&quot;&gt;&lt;b&gt;&lt;font style=&quot;font-size: 17px&quot;&gt;JNDI&lt;/font&gt;&lt;/b&gt;&lt;/p&gt;&lt;p style=&quot;font-size: 17px&quot;&gt;&lt;b&gt;&lt;font style=&quot;font-size: 17px&quot;&gt;SPI&lt;/font&gt;&lt;/b&gt;&lt;/p&gt;&lt;p style=&quot;font-size: 17px&quot;&gt;&lt;br&gt;&lt;/p&gt;" style="text;html=1;strokeColor=none;fillColor=none;spacing=5;spacingTop=-20;whiteSpace=wrap;overflow=hidden;rounded=0;" vertex="1" parent="1">
          <mxGeometry x="110" y="80" width="380" height="210" as="geometry" />
        </mxCell>
      </root>
    </mxGraphModel>
  </diagram>
</mxfile>
